<svg width="160" height="160" viewBox="0 0 160 160" fill="none" xmlns="http://www.w3.org/2000/svg">
  <rect width="160" height="160" rx="20" fill="#F0F0F0"/>
  <path d="M80 50C68.954 50 60 58.954 60 70C60 81.046 68.954 90 80 90C91.046 90 100 81.046 100 70C100 58.954 91.046 50 80 50ZM80 85C71.716 85 65 78.284 65 70C65 61.716 71.716 55 80 55C88.284 55 95 61.716 95 70C95 78.284 88.284 85 80 85Z" fill="#CCCCCC"/>
  <path d="M104.142 111.213C111.952 104.523 117 94.679 117 83.75C117 62.474 100.225 45 80 45C59.775 45 43 62.474 43 83.75C43 94.679 48.048 104.523 55.858 111.213C60.739 115.451 66.583 118.486 73.03 119.914C75.256 120.413 77.589 120.68 80 120.68C82.411 120.68 84.744 120.413 86.97 119.914C93.417 118.486 99.261 115.451 104.142 111.213ZM80 115.68C63.98 115.68 50.961 103.396 48.439 87.218C48.187 85.436 48.05 83.607 48.05 81.75C48.05 65.334 62.379 50 80 50C97.621 50 111.95 65.334 111.95 81.75C111.95 83.607 111.813 85.436 111.561 87.218C109.039 103.396 96.02 115.68 80 115.68Z" fill="#CCCCCC"/>
  <text x="80" y="110" font-family="Arial" font-size="14" text-anchor="middle" fill="#666666">IMAGE</text>
</svg> 