<svg xmlns="http://www.w3.org/2000/svg" xml:space="preserve" width="765.66" height="344.355" viewBox="0 0 202.581 91.111"><defs><path id="a" d="M50.499 167.368h697.367v161.597H50.499z"/></defs><path d="M27.993 149.278c2.6-13.698 7.579-23.375 19.292-31.252 14.749-9.866 34.297-9.903 50.381-3.272 17.798 6.706 35.58 17.182 55.32 14.59 14.061-2.06 25.906-11.431 33.927-22.78-6.88 15.914-21.76 28.83-39.291 30.824 7.217 1.15 14.286-1.418 20.24-5.446-10.661 11.546-28.421 13.444-42.911 9.15-17.636-5.5-34.645-16.267-53.694-14.73-14.555.687-27.73 9.02-38.618 18.182-1.518 1.233-3.522 2.994-4.646 4.734z" style="fill:#0f5a5c;fill-opacity:1" transform="translate(-5.853 -105.871)"/><path d="M123.715 153.362c-23.44-2.56-43.105-20.245-67.281-18.66-1.805-.04-7.395 1.408-7.062 1.196.61-.39.765-.477 2.489-1.493 13.697-7.978 30.698-6.91 44.993-1.091 15.538 5.616 31.152 14.539 48.284 12.1 11.872-1.144 23.392-5.707 32.514-13.409-7.226 7.939-16.459 14.902-27.321 16.56 2.105.992 10.077-1.618 9.688-1.381-.07.042-.639.574-2.911 1.758-10.396 4.776-22.16 5.271-33.393 4.42z" style="fill:#ff6b5a;fill-opacity:1" transform="translate(-5.853 -105.871)"/><text xml:space="preserve" style="font-style:normal;font-variant:normal;font-weight:500;font-stretch:normal;font-size:85.3333px;font-family:Inter;-inkscape-font-specification:&quot;Inter Medium&quot;;text-align:start;writing-mode:lr-tb;direction:ltr;white-space:pre;shape-inside:url(#a);fill:#ff6b5a" transform="matrix(.26458 0 0 .26458 1.47 5.98)"><tspan x="50.498" y="246.356"><tspan style="fill:#0f5a5c">TegnOgFarge</tspan>.no</tspan></text></svg>