<svg data-v-e3d9e95a="" xmlns="http://www.w3.org/2000/svg" width="28" height="28" viewBox="0 0 28 28" fill="none" class="shrink-0"><path data-v-e3d9e95a="" d="M2.1582 16.6348C2.04753 16.5176 1.99219 16.3841 1.99219 16.2344C1.99219 16.0781 2.04753 15.9414 2.1582 15.8242L3.88672 14.1055C5.60547 12.3867 7.08008 10.9414 8.31055 9.76953C9.54102 8.59115 10.5859 7.65039 11.4453 6.94727C12.3047 6.24414 13.0273 5.7526 13.6133 5.47266C14.2057 5.1862 14.7135 5.08203 15.1367 5.16016C15.5599 5.23177 15.957 5.44987 16.3281 5.81445C16.6862 6.17904 16.875 6.58919 16.8945 7.04492C16.9206 7.50065 16.7773 8.04102 16.4648 8.66602C16.1589 9.29102 15.6771 10.0299 15.0195 10.8828C14.3685 11.7357 13.5482 12.7318 12.5586 13.8711C11.4648 15.1341 10.6022 16.1953 9.9707 17.0547C9.33919 17.9076 8.9388 18.6042 8.76953 19.1445C8.60677 19.6784 8.67839 20.0951 8.98438 20.3945C9.23828 20.6354 9.58333 20.694 10.0195 20.5703C10.4622 20.4466 11.0189 20.1276 11.6895 19.6133C12.3665 19.0924 13.1836 18.3698 14.1406 17.4453C15.1888 16.4297 16.0872 15.6452 16.8359 15.0918C17.5911 14.5384 18.2292 14.2161 18.75 14.125C19.2773 14.0339 19.7233 14.1738 20.0879 14.5449C20.3613 14.8184 20.5046 15.1406 20.5176 15.5117C20.5371 15.8763 20.4329 16.319 20.2051 16.8398C19.9837 17.3607 19.6484 17.9857 19.1992 18.7148C18.8477 19.2878 18.5677 19.763 18.3594 20.1406C18.1576 20.5117 18.0306 20.8047 17.9785 21.0195C17.9329 21.2409 17.9655 21.4036 18.0762 21.5078C18.1738 21.612 18.3301 21.625 18.5449 21.5469C18.7663 21.4688 19.0397 21.3027 19.3652 21.0488C19.6973 20.8014 20.0879 20.4694 20.5371 20.0527C20.6608 19.929 20.7975 19.8672 20.9473 19.8672C21.097 19.8672 21.2305 19.9225 21.3477 20.0332C21.4714 20.1504 21.5299 20.2871 21.5234 20.4434C21.5169 20.5996 21.4421 20.7493 21.2988 20.8926C20.4199 21.8171 19.6387 22.3997 18.9551 22.6406C18.278 22.8815 17.7376 22.8001 17.334 22.3965C17.0801 22.1426 16.9434 21.8496 16.9238 21.5176C16.9043 21.1921 16.9629 20.8438 17.0996 20.4727C17.2428 20.1016 17.4284 19.7174 17.6562 19.3203C17.8841 18.9167 18.1152 18.5098 18.3496 18.0996C18.7663 17.377 19.0788 16.791 19.2871 16.3418C19.502 15.8926 19.4922 15.5508 19.2578 15.3164C19.1146 15.1797 18.9095 15.1569 18.6426 15.248C18.3822 15.3327 18.0664 15.5117 17.6953 15.7852C17.3307 16.0586 16.9206 16.4102 16.4648 16.8398C16.0091 17.263 15.5111 17.7415 14.9707 18.2754C14.4173 18.8223 13.8737 19.3236 13.3398 19.7793C12.8125 20.2285 12.3047 20.6126 11.8164 20.9316C11.3281 21.2441 10.8626 21.472 10.4199 21.6152C9.98372 21.765 9.57682 21.8073 9.19922 21.7422C8.82812 21.6836 8.48958 21.5013 8.18359 21.1953C7.80599 20.8177 7.60091 20.3945 7.56836 19.9258C7.54232 19.457 7.64323 18.9557 7.87109 18.4219C8.09896 17.888 8.41471 17.3314 8.81836 16.752C9.22201 16.166 9.67448 15.5703 10.1758 14.9648C10.6771 14.3594 11.1882 13.7507 11.709 13.1387C12.4186 12.3053 13.0566 11.5404 13.623 10.8438C14.196 10.1406 14.6615 9.51562 15.0195 8.96875C15.3841 8.41536 15.6152 7.94336 15.7129 7.55273C15.8171 7.1556 15.7552 6.84635 15.5273 6.625C15.2799 6.3776 14.9609 6.29297 14.5703 6.37109C14.1797 6.44922 13.6947 6.68685 13.1152 7.08398C12.5358 7.47461 11.849 8.02474 11.0547 8.73438C10.2604 9.44401 9.33594 10.3164 8.28125 11.3516C7.22656 12.3802 6.02865 13.5684 4.6875 14.916L2.96875 16.6348C2.85156 16.752 2.71484 16.8105 2.55859 16.8105C2.40885 16.8105 2.27539 16.752 2.1582 16.6348Z" fill="#8D95A3"></path></svg>