<svg xmlns="http://www.w3.org/2000/svg" width="28" height="28" viewBox="0 0 28 28" fill="none">
  <path d="M2.59766 16.7129C2.36979 16.4915 2.20052 16.2181 2.08984 15.8926C1.97917 15.5671 1.96289 15.2122 2.04102 14.8281C2.12565 14.444 2.33073 14.0534 2.65625 13.6562C2.76693 13.526 2.89714 13.3828 3.04688 13.2266C3.19661 13.0638 3.36914 12.8848 3.56445 12.6895C3.75977 12.4941 3.97786 12.2793 4.21875 12.0449C4.45964 11.8105 4.72005 11.5534 5 11.2734C6.84245 9.45052 8.44401 7.97266 9.80469 6.83984C11.1654 5.70703 12.3405 4.88997 13.3301 4.38867C14.3262 3.88086 15.1888 3.65951 15.918 3.72461C16.6471 3.7832 17.3014 4.0957 17.8809 4.66211C18.3366 5.11133 18.5742 5.63216 18.5938 6.22461C18.6133 6.81706 18.457 7.49089 18.125 8.24609C17.793 9.0013 17.3242 9.84115 16.7188 10.7656C16.1198 11.6836 15.4264 12.6927 14.6387 13.793C14.1243 14.5156 13.6654 15.1602 13.2617 15.7266C12.8581 16.293 12.513 16.791 12.2266 17.2207C11.9401 17.6439 11.709 18.002 11.5332 18.2949C11.3574 18.5879 11.237 18.819 11.1719 18.9883C11.1133 19.151 11.1068 19.2617 11.1523 19.3203C11.1849 19.3659 11.2891 19.3496 11.4648 19.2715C11.6471 19.1934 11.8945 19.0501 12.207 18.8418C12.526 18.627 12.9134 18.3372 13.3691 17.9727C13.8314 17.6081 14.362 17.1589 14.9609 16.625C15.7422 15.9414 16.4486 15.3392 17.0801 14.8184C17.7181 14.291 18.3008 13.8874 18.8281 13.6074C19.3555 13.321 19.8438 13.1842 20.293 13.1973C20.7487 13.2103 21.1751 13.4121 21.5723 13.8027C21.8783 14.0957 22.0638 14.418 22.1289 14.7695C22.2005 15.1146 22.181 15.4889 22.0703 15.8926C21.9596 16.2962 21.7839 16.7357 21.543 17.2109C21.3086 17.6862 21.0384 18.2005 20.7324 18.7539C20.4525 19.2552 20.2083 19.6914 20 20.0625C19.7982 20.4336 19.6484 20.7298 19.5508 20.9512C19.4596 21.1725 19.4336 21.3027 19.4727 21.3418C19.5117 21.3809 19.6289 21.3451 19.8242 21.2344C20.0195 21.1237 20.2702 20.9512 20.5762 20.7168C20.8887 20.4759 21.2305 20.1797 21.6016 19.8281C21.7904 19.6654 21.9954 19.5775 22.2168 19.5645C22.4447 19.5449 22.6465 19.6198 22.8223 19.7891C23.0046 19.9648 23.0762 20.1764 23.0371 20.4238C23.0046 20.6647 22.8809 20.8926 22.666 21.1074C21.709 22.0514 20.8301 22.6309 20.0293 22.8457C19.235 23.0605 18.6068 22.9401 18.1445 22.4844C17.8255 22.1589 17.6465 21.804 17.6074 21.4199C17.5749 21.0358 17.6335 20.6322 17.7832 20.209C17.9395 19.7793 18.138 19.3529 18.3789 18.9297C18.6263 18.5 18.8672 18.0833 19.1016 17.6797C19.3034 17.3281 19.4889 17.0059 19.6582 16.7129C19.834 16.4199 19.9642 16.179 20.0488 15.9902C20.1335 15.7949 20.1497 15.6712 20.0977 15.6191C20.013 15.5345 19.8145 15.5996 19.502 15.8145C19.196 16.0228 18.7956 16.3418 18.3008 16.7715C17.806 17.2012 17.2331 17.7057 16.582 18.2852C15.319 19.3919 14.209 20.2643 13.252 20.9023C12.3014 21.5404 11.4746 21.9082 10.7715 22.0059C10.0749 22.1035 9.4694 21.8919 8.95508 21.3711C8.55143 20.974 8.32031 20.528 8.26172 20.0332C8.20964 19.5384 8.28776 19.0013 8.49609 18.4219C8.71094 17.8424 9.02344 17.2207 9.43359 16.5566C9.85026 15.8861 10.3288 15.1764 10.8691 14.4277C11.416 13.679 11.9857 12.888 12.5781 12.0547C13.0013 11.4688 13.4082 10.8991 13.7988 10.3457C14.1895 9.79232 14.5312 9.28776 14.8242 8.83203C15.1172 8.36979 15.332 7.98893 15.4688 7.68945C15.6055 7.38997 15.6348 7.20117 15.5566 7.12305C15.4525 7.0319 15.2018 7.13932 14.8047 7.44531C14.4076 7.7513 13.8704 8.23307 13.1934 8.89062C12.5228 9.54167 11.7122 10.3457 10.7617 11.3027C9.81771 12.2598 8.75 13.3438 7.55859 14.5547C7.3112 14.7956 7.08333 15.0234 6.875 15.2383C6.67318 15.4466 6.48438 15.6387 6.30859 15.8145C6.13932 15.9902 5.98633 16.1465 5.84961 16.2832C5.7194 16.4134 5.60547 16.5241 5.50781 16.6152C5.18229 16.9082 4.83724 17.097 4.47266 17.1816C4.10807 17.2598 3.75977 17.2565 3.42773 17.1719C3.10221 17.0807 2.82552 16.9277 2.59766 16.7129Z" fill="#8D95A3" />
</svg>
