<svg xmlns="http://www.w3.org/2000/svg" width="96" height="96" version="1.2" viewBox="0 0 159 159"><path d="M0 98.7C2.6 85 7.6 75.3 19.3 67.5c14.7-9.9 34.3-9.9 50.4-3.3 17.8 6.7 35.6 17.2 55.3 14.6 14.1-2.1 25.9-11.5 33.9-22.8-6.9 15.9-21.7 28.8-39.3 30.8 7.2 1.2 14.3-1.4 20.3-5.4-10.7 11.5-28.5 13.4-42.9 9.1C79.3 85 62.3 74.3 43.3 75.8c-14.6.7-27.8 9-38.7 18.2-1.5 1.2-3.5 3-4.6 4.7" style="fill:#0f5a5c"/><path d="M95.7 102.8c-23.4-2.6-43.1-20.2-67.3-18.7-1.8 0-7.4 1.4-7 1.2.6-.4.7-.4 2.5-1.5 13.7-7.9 30.7-6.9 45-1.1 15.5 5.7 31.1 14.6 48.2 12.1 11.9-1.1 23.4-5.7 32.6-13.4-7.3 8-16.5 14.9-27.4 16.6 2.1 1 10.1-1.6 9.7-1.4 0 .1-.6.6-2.9 1.8-10.4 4.8-22.1 5.2-33.4 4.4" style="fill:#ff6b5a"/></svg>